<mxfile host="65bd71144e" pages="2">
    <diagram name="Общее предсавление" id="9f46799a-70d6-7492-0946-bef42562c5a5">
        <mxGraphModel dx="740" dy="563" grid="1" gridSize="10" guides="1" tooltips="1" connect="1" arrows="1" fold="1" page="1" pageScale="1" pageWidth="1100" pageHeight="850" background="none" math="0" shadow="0">
            <root>
                <mxCell id="0"/>
                <mxCell id="1" parent="0"/>
                <mxCell id="1vKEK9xO6qy2kLbvvO94-2" value="Главная" style="html=1;whiteSpace=wrap;" parent="1" vertex="1">
                    <mxGeometry x="110" y="110" width="110" height="50" as="geometry"/>
                </mxCell>
                <mxCell id="1vKEK9xO6qy2kLbvvO94-3" value="О нас" style="html=1;whiteSpace=wrap;" parent="1" vertex="1">
                    <mxGeometry x="400" y="110" width="110" height="50" as="geometry"/>
                </mxCell>
                <mxCell id="1vKEK9xO6qy2kLbvvO94-4" value="Личный кабинет" style="html=1;whiteSpace=wrap;" parent="1" vertex="1">
                    <mxGeometry x="540" y="110" width="110" height="50" as="geometry"/>
                </mxCell>
                <mxCell id="1vKEK9xO6qy2kLbvvO94-5" value="Услуги" style="html=1;whiteSpace=wrap;" parent="1" vertex="1">
                    <mxGeometry x="260" y="110" width="110" height="50" as="geometry"/>
                </mxCell>
                <mxCell id="1vKEK9xO6qy2kLbvvO94-6" value="" style="strokeWidth=2;html=1;shape=mxgraph.flowchart.database;whiteSpace=wrap;" parent="1" vertex="1">
                    <mxGeometry x="285" y="280" width="60" height="60" as="geometry"/>
                </mxCell>
                <mxCell id="1vKEK9xO6qy2kLbvvO94-7" value="" style="strokeWidth=2;html=1;shape=mxgraph.flowchart.database;whiteSpace=wrap;" parent="1" vertex="1">
                    <mxGeometry x="565" y="280" width="60" height="60" as="geometry"/>
                </mxCell>
                <mxCell id="1vKEK9xO6qy2kLbvvO94-8" value="" style="endArrow=classic;startArrow=classic;html=1;rounded=0;exitX=1;exitY=0.5;exitDx=0;exitDy=0;entryX=0;entryY=0.5;entryDx=0;entryDy=0;" parent="1" source="1vKEK9xO6qy2kLbvvO94-2" target="1vKEK9xO6qy2kLbvvO94-5" edge="1">
                    <mxGeometry width="50" height="50" relative="1" as="geometry">
                        <mxPoint x="420" y="360" as="sourcePoint"/>
                        <mxPoint x="470" y="310" as="targetPoint"/>
                    </mxGeometry>
                </mxCell>
                <mxCell id="1vKEK9xO6qy2kLbvvO94-10" value="" style="endArrow=classic;startArrow=classic;html=1;rounded=0;entryX=0;entryY=0.5;entryDx=0;entryDy=0;exitX=1;exitY=0.5;exitDx=0;exitDy=0;" parent="1" source="1vKEK9xO6qy2kLbvvO94-5" target="1vKEK9xO6qy2kLbvvO94-3" edge="1">
                    <mxGeometry width="50" height="50" relative="1" as="geometry">
                        <mxPoint x="350" y="270" as="sourcePoint"/>
                        <mxPoint x="400" y="220" as="targetPoint"/>
                    </mxGeometry>
                </mxCell>
                <mxCell id="1vKEK9xO6qy2kLbvvO94-11" value="" style="endArrow=classic;startArrow=classic;html=1;rounded=0;entryX=0;entryY=0.5;entryDx=0;entryDy=0;exitX=1;exitY=0.5;exitDx=0;exitDy=0;" parent="1" source="1vKEK9xO6qy2kLbvvO94-3" target="1vKEK9xO6qy2kLbvvO94-4" edge="1">
                    <mxGeometry width="50" height="50" relative="1" as="geometry">
                        <mxPoint x="420" y="280" as="sourcePoint"/>
                        <mxPoint x="470" y="230" as="targetPoint"/>
                    </mxGeometry>
                </mxCell>
                <mxCell id="1vKEK9xO6qy2kLbvvO94-12" value="" style="ellipse;html=1;shape=startState;fillColor=#000000;strokeColor=#ff0000;" parent="1" vertex="1">
                    <mxGeometry x="150" y="20" width="30" height="30" as="geometry"/>
                </mxCell>
                <mxCell id="1vKEK9xO6qy2kLbvvO94-13" value="" style="edgeStyle=orthogonalEdgeStyle;html=1;verticalAlign=bottom;endArrow=open;endSize=8;strokeColor=#ff0000;rounded=0;" parent="1" source="1vKEK9xO6qy2kLbvvO94-12" edge="1">
                    <mxGeometry relative="1" as="geometry">
                        <mxPoint x="165" y="110" as="targetPoint"/>
                    </mxGeometry>
                </mxCell>
                <mxCell id="1vKEK9xO6qy2kLbvvO94-15" value="" style="endArrow=classic;startArrow=classic;html=1;rounded=0;entryX=0.5;entryY=1;entryDx=0;entryDy=0;exitX=0.5;exitY=0;exitDx=0;exitDy=0;exitPerimeter=0;" parent="1" source="1vKEK9xO6qy2kLbvvO94-7" target="1vKEK9xO6qy2kLbvvO94-4" edge="1">
                    <mxGeometry width="50" height="50" relative="1" as="geometry">
                        <mxPoint x="530" y="270" as="sourcePoint"/>
                        <mxPoint x="580" y="220" as="targetPoint"/>
                    </mxGeometry>
                </mxCell>
                <mxCell id="1vKEK9xO6qy2kLbvvO94-16" value="" style="endArrow=classic;startArrow=classic;html=1;rounded=0;entryX=0.5;entryY=1;entryDx=0;entryDy=0;exitX=0.5;exitY=0;exitDx=0;exitDy=0;exitPerimeter=0;" parent="1" source="1vKEK9xO6qy2kLbvvO94-6" target="1vKEK9xO6qy2kLbvvO94-5" edge="1">
                    <mxGeometry width="50" height="50" relative="1" as="geometry">
                        <mxPoint x="150" y="290" as="sourcePoint"/>
                        <mxPoint x="200" y="240" as="targetPoint"/>
                    </mxGeometry>
                </mxCell>
            </root>
        </mxGraphModel>
    </diagram>
    <diagram id="90ZcTQushnIKvJbsj3zl" name="личный кабинет">
        <mxGraphModel dx="740" dy="563" grid="1" gridSize="10" guides="1" tooltips="1" connect="1" arrows="1" fold="1" page="1" pageScale="1" pageWidth="827" pageHeight="1169" math="0" shadow="0">
            <root>
                <mxCell id="0"/>
                <mxCell id="1" parent="0"/>
                <mxCell id="WFTGo0eZjpFftvzZyh6D-3" value="" style="shape=umlLifeline;perimeter=lifelinePerimeter;whiteSpace=wrap;html=1;container=1;dropTarget=0;collapsible=0;recursiveResize=0;outlineConnect=0;portConstraint=eastwest;newEdgeStyle={&quot;curved&quot;:0,&quot;rounded&quot;:0};participant=umlActor;" parent="1" vertex="1">
                    <mxGeometry x="140" y="70" width="20" height="420" as="geometry"/>
                </mxCell>
                <mxCell id="WFTGo0eZjpFftvzZyh6D-4" value="Сайт" style="shape=umlLifeline;perimeter=lifelinePerimeter;whiteSpace=wrap;html=1;container=1;dropTarget=0;collapsible=0;recursiveResize=0;outlineConnect=0;portConstraint=eastwest;newEdgeStyle={&quot;curved&quot;:0,&quot;rounded&quot;:0};" parent="1" vertex="1">
                    <mxGeometry x="370" y="60" width="100" height="450" as="geometry"/>
                </mxCell>
                <mxCell id="WFTGo0eZjpFftvzZyh6D-5" value="" style="html=1;points=[[0,0,0,0,5],[0,1,0,0,-5],[1,0,0,0,5],[1,1,0,0,-5]];perimeter=orthogonalPerimeter;outlineConnect=0;targetShapes=umlLifeline;portConstraint=eastwest;newEdgeStyle={&quot;curved&quot;:0,&quot;rounded&quot;:0};" parent="WFTGo0eZjpFftvzZyh6D-4" vertex="1">
                    <mxGeometry x="45" y="60" width="10" height="80" as="geometry"/>
                </mxCell>
                <mxCell id="WFTGo0eZjpFftvzZyh6D-17" value="" style="html=1;points=[[0,0,0,0,5],[0,1,0,0,-5],[1,0,0,0,5],[1,1,0,0,-5]];perimeter=orthogonalPerimeter;outlineConnect=0;targetShapes=umlLifeline;portConstraint=eastwest;newEdgeStyle={&quot;curved&quot;:0,&quot;rounded&quot;:0};" parent="WFTGo0eZjpFftvzZyh6D-4" vertex="1">
                    <mxGeometry x="45" y="200" width="10" height="80" as="geometry"/>
                </mxCell>
                <mxCell id="WFTGo0eZjpFftvzZyh6D-6" value="ФИО&lt;br&gt;Почта&lt;br&gt;Телефон&lt;br&gt;Пароль" style="html=1;verticalAlign=bottom;endArrow=block;curved=0;rounded=0;entryX=1;entryY=0;entryDx=0;entryDy=5;" parent="1" source="WFTGo0eZjpFftvzZyh6D-3" target="WFTGo0eZjpFftvzZyh6D-5" edge="1">
                    <mxGeometry x="0.0018" relative="1" as="geometry">
                        <mxPoint x="495" y="125" as="sourcePoint"/>
                        <mxPoint as="offset"/>
                    </mxGeometry>
                </mxCell>
                <mxCell id="WFTGo0eZjpFftvzZyh6D-7" value="Ошибка или успех" style="html=1;verticalAlign=bottom;endArrow=open;dashed=1;endSize=8;curved=0;rounded=0;exitX=1;exitY=1;exitDx=0;exitDy=-5;" parent="1" source="WFTGo0eZjpFftvzZyh6D-5" target="WFTGo0eZjpFftvzZyh6D-3" edge="1">
                    <mxGeometry relative="1" as="geometry">
                        <mxPoint x="495" y="195" as="targetPoint"/>
                    </mxGeometry>
                </mxCell>
                <mxCell id="WFTGo0eZjpFftvzZyh6D-11" value="БД" style="shape=umlLifeline;whiteSpace=wrap;html=1;container=1;dropTarget=0;collapsible=0;recursiveResize=0;outlineConnect=0;portConstraint=eastwest;newEdgeStyle={&quot;curved&quot;:0,&quot;rounded&quot;:0};participant=label;targetShapes=umlLifeline;points=[[0,0,0,0,5],[0,1,0,0,-5],[1,0,0,0,5],[1,1,0,0,-5]];perimeter=rectanglePerimeter;" parent="1" vertex="1">
                    <mxGeometry x="560" y="60" width="50" height="430" as="geometry"/>
                </mxCell>
                <mxCell id="WFTGo0eZjpFftvzZyh6D-12" value="" style="html=1;points=[[0,0,0,0,5],[0,1,0,0,-5],[1,0,0,0,5],[1,1,0,0,-5]];perimeter=orthogonalPerimeter;outlineConnect=0;targetShapes=umlLifeline;portConstraint=eastwest;newEdgeStyle={&quot;curved&quot;:0,&quot;rounded&quot;:0};" parent="WFTGo0eZjpFftvzZyh6D-11" vertex="1">
                    <mxGeometry x="19" y="70" width="10" height="50" as="geometry"/>
                </mxCell>
                <mxCell id="WFTGo0eZjpFftvzZyh6D-20" value="" style="html=1;points=[[0,0,0,0,5],[0,1,0,0,-5],[1,0,0,0,5],[1,1,0,0,-5]];perimeter=orthogonalPerimeter;outlineConnect=0;targetShapes=umlLifeline;portConstraint=eastwest;newEdgeStyle={&quot;curved&quot;:0,&quot;rounded&quot;:0};" parent="WFTGo0eZjpFftvzZyh6D-11" vertex="1">
                    <mxGeometry x="18" y="200" width="10" height="80" as="geometry"/>
                </mxCell>
                <mxCell id="WFTGo0eZjpFftvzZyh6D-13" value="ФИО&lt;br style=&quot;border-color: var(--border-color);&quot;&gt;Почта&lt;br style=&quot;border-color: var(--border-color);&quot;&gt;Телефон&lt;br style=&quot;border-color: var(--border-color);&quot;&gt;Пароль" style="html=1;verticalAlign=bottom;endArrow=block;curved=0;rounded=0;entryX=1;entryY=0;entryDx=0;entryDy=5;" parent="1" source="WFTGo0eZjpFftvzZyh6D-5" target="WFTGo0eZjpFftvzZyh6D-12" edge="1">
                    <mxGeometry relative="1" as="geometry">
                        <mxPoint x="425" y="148" as="sourcePoint"/>
                    </mxGeometry>
                </mxCell>
                <mxCell id="WFTGo0eZjpFftvzZyh6D-14" value="Ошибка или успех" style="html=1;verticalAlign=bottom;endArrow=open;dashed=1;endSize=8;curved=0;rounded=0;exitX=1;exitY=1;exitDx=0;exitDy=-5;" parent="1" source="WFTGo0eZjpFftvzZyh6D-12" edge="1">
                    <mxGeometry x="0.0059" relative="1" as="geometry">
                        <mxPoint x="420" y="175" as="targetPoint"/>
                        <Array as="points"/>
                        <mxPoint as="offset"/>
                    </mxGeometry>
                </mxCell>
                <mxCell id="WFTGo0eZjpFftvzZyh6D-15" value="При успехе переход в ЛК" style="text;strokeColor=none;fillColor=none;align=left;verticalAlign=top;spacingLeft=4;spacingRight=4;overflow=hidden;rotatable=0;points=[[0,0.5],[1,0.5]];portConstraint=eastwest;whiteSpace=wrap;html=1;" parent="1" vertex="1">
                    <mxGeometry x="30" y="170" width="100" height="43" as="geometry"/>
                </mxCell>
                <mxCell id="WFTGo0eZjpFftvzZyh6D-16" value="Регистрания и асторизация" style="text;strokeColor=none;fillColor=none;align=left;verticalAlign=top;spacingLeft=4;spacingRight=4;overflow=hidden;rotatable=0;points=[[0,0.5],[1,0.5]];portConstraint=eastwest;whiteSpace=wrap;html=1;" parent="1" vertex="1">
                    <mxGeometry x="230" width="100" height="40" as="geometry"/>
                </mxCell>
                <mxCell id="WFTGo0eZjpFftvzZyh6D-18" value="Выбораная услуга&lt;br&gt;Размер территории&lt;br&gt;Описание ожиданий и нюансов, которые могут возникнкуть&lt;br&gt;Желаемая дата" style="html=1;verticalAlign=bottom;endArrow=block;curved=0;rounded=0;entryX=1;entryY=0;entryDx=0;entryDy=5;labelBackgroundColor=none;" parent="1" source="WFTGo0eZjpFftvzZyh6D-3" target="WFTGo0eZjpFftvzZyh6D-17" edge="1">
                    <mxGeometry x="0.0176" y="-25" relative="1" as="geometry">
                        <mxPoint x="495" y="265" as="sourcePoint"/>
                        <mxPoint as="offset"/>
                    </mxGeometry>
                </mxCell>
                <mxCell id="WFTGo0eZjpFftvzZyh6D-19" value="Ошибка или успех" style="html=1;verticalAlign=bottom;endArrow=open;dashed=1;endSize=8;curved=0;rounded=0;exitX=1;exitY=1;exitDx=0;exitDy=-5;" parent="1" source="WFTGo0eZjpFftvzZyh6D-17" target="WFTGo0eZjpFftvzZyh6D-3" edge="1">
                    <mxGeometry relative="1" as="geometry">
                        <mxPoint x="495" y="335" as="targetPoint"/>
                    </mxGeometry>
                </mxCell>
                <mxCell id="WFTGo0eZjpFftvzZyh6D-21" value="callback" style="html=1;verticalAlign=bottom;endArrow=block;curved=0;rounded=0;entryX=1;entryY=0;entryDx=0;entryDy=5;" parent="1" source="WFTGo0eZjpFftvzZyh6D-4" target="WFTGo0eZjpFftvzZyh6D-20" edge="1">
                    <mxGeometry relative="1" as="geometry">
                        <mxPoint x="414" y="215" as="sourcePoint"/>
                    </mxGeometry>
                </mxCell>
                <mxCell id="WFTGo0eZjpFftvzZyh6D-22" value="return" style="html=1;verticalAlign=bottom;endArrow=open;dashed=1;endSize=8;curved=0;rounded=0;exitX=1;exitY=1;exitDx=0;exitDy=-5;entryX=1;entryY=1;entryDx=0;entryDy=-5;entryPerimeter=0;" parent="1" source="WFTGo0eZjpFftvzZyh6D-20" target="WFTGo0eZjpFftvzZyh6D-17" edge="1">
                    <mxGeometry relative="1" as="geometry">
                        <mxPoint x="414" y="285" as="targetPoint"/>
                    </mxGeometry>
                </mxCell>
            </root>
        </mxGraphModel>
    </diagram>
</mxfile>